<?xml version="1.0" encoding="utf-8"?>
<!-- Generator: Adobe Illustrator 28.3.0, SVG Export Plug-In . SVG Version: 6.00 Build 0)  -->
<svg version="1.1" id="Ñëîé_1" xmlns="http://www.w3.org/2000/svg" xmlns:xlink="http://www.w3.org/1999/xlink" x="0px" y="0px"
	 viewBox="0 0 273.92 248.69" style="enable-background:new 0 0 273.92 248.69;" xml:space="preserve">
<style type="text/css">
	.st0{display:none;fill:#480689;}
	.st1{fill:#0C0F38;}
	.st2{fill:url(#SVGID_1_);}
	.st3{fill:#D4088C;}
	.st4{fill:#6DE0F6;}
	.st5{opacity:0.5;fill:#D4088C;}
	.st6{opacity:0.3;fill:#D4088C;}
	.st7{opacity:0.15;fill:#D4088C;}
	.st8{fill:url(#SVGID_00000167376891876584191150000013346108540019644851_);}
	.st9{fill:#267FE5;}
	.st10{fill:#161242;}
	.st11{fill:url(#SVGID_00000111892281797320804090000016419953921991079091_);}
	.st12{fill:url(#SVGID_00000181773571490925251930000016843001457501623943_);}
	.st13{fill:url(#SVGID_00000155112427868933127760000014395390342274727332_);}
	.st14{fill:url(#SVGID_00000183236938135214211740000015704794508330048924_);}
	.st15{fill:url(#SVGID_00000015317449987247120670000012040045969614043805_);}
	.st16{fill:url(#SVGID_00000067199640754728294950000017531645198990137761_);}
</style>
<rect x="-174.14" y="-118.3" class="st0" width="612.57" height="473.71"/>
<g>
	<g>
		<path class="st1" d="M130.72,152.3l-48.48-27.99c-3.45-1.99-3.01-5.47,0.97-7.77l46.55-26.88c3.98-2.3,10-2.55,13.45-0.56
			l48.48,27.99c3.45,1.99,3.01,5.47-0.97,7.77l-46.55,26.88C140.19,154.04,134.17,154.29,130.72,152.3z"/>
		<linearGradient id="SVGID_1_" gradientUnits="userSpaceOnUse" x1="67.5176" y1="76.4505" x2="209.814" y2="76.4505">
			<stop  offset="0" style="stop-color:#A31FA9"/>
			<stop  offset="0.0668" style="stop-color:#8B17A0"/>
			<stop  offset="0.1494" style="stop-color:#740F98"/>
			<stop  offset="0.2393" style="stop-color:#640A92"/>
			<stop  offset="0.3408" style="stop-color:#5B078F"/>
			<stop  offset="0.4785" style="stop-color:#58068E"/>
			<stop  offset="0.6264" style="stop-color:#4D22A3"/>
			<stop  offset="0.9436" style="stop-color:#3168DA"/>
			<stop  offset="1" style="stop-color:#2C75E4"/>
		</linearGradient>
		<path class="st2" d="M195.36,33.72h-24.61l-27.4-15.82c-3.53-2.04-9.69-1.78-13.77,0.57l-26.41,15.25h-24.6v68.94h0.01
			c-0.1,1.38,0.67,2.71,2.36,3.69L130.57,135c3.53,2.04,9.69,1.78,13.77-0.57l47.65-27.51c2.12-1.22,3.24-2.77,3.35-4.26h0.02V33.72
			z"/>
		<path class="st3" d="M84.8,33.72h-6.23v68.94h0.01c-0.07,0.98,0.3,1.93,1.13,2.75c-0.53-0.7-0.77-1.48-0.71-2.27h-0.01V34.2h6.3
			C85.13,34.03,84.97,33.87,84.8,33.72z"/>
		<path class="st4" d="M187.48,33.72c-0.04,0.14-0.09,0.28-0.14,0.41h7.58v68.94h-0.02c-0.07,0.92-0.53,1.87-1.37,2.75
			c1.12-0.99,1.73-2.09,1.81-3.16h0.02V33.72H187.48z"/>
		<polygon class="st5" points="95.96,115.02 95.96,35.05 87.02,35.05 87.02,109.85 		"/>
		<polygon class="st6" points="101.44,118.18 101.44,40.42 99,40.42 99,116.77 		"/>
		<polygon class="st7" points="105.81,120.71 105.81,41.36 103.37,41.36 103.37,119.3 		"/>
		
			<linearGradient id="SVGID_00000091737397146650596910000000798710741425416356_" gradientUnits="userSpaceOnUse" x1="329.2512" y1="604.1193" x2="396.3727" y2="545.9904" gradientTransform="matrix(0.866 0.5 -1 0.5774 396.5952 -479.7253)">
			<stop  offset="0" style="stop-color:#267FE5"/>
			<stop  offset="0.1699" style="stop-color:#2C87E7"/>
			<stop  offset="0.441" style="stop-color:#3D9FEB"/>
			<stop  offset="0.7773" style="stop-color:#59C4F2"/>
			<stop  offset="1" style="stop-color:#6EE1F8"/>
		</linearGradient>
		<path style="fill:url(#SVGID_00000091737397146650596910000000798710741425416356_);" d="M130.57,66.06L80.94,37.41
			c-3.53-2.04-3.09-5.6,0.99-7.95l47.65-27.51c4.07-2.35,10.24-2.61,13.77-0.57l49.63,28.65c3.53,2.04,3.09,5.6-0.99,7.95
			l-47.65,27.51C140.26,67.84,134.1,68.1,130.57,66.06z"/>
		<path class="st4" d="M131.12,66.06L81.49,37.41c-3.53-2.04-3.09-5.6,0.99-7.95l47.65-27.51c2.02-1.17,4.55-1.81,7.02-1.92
			c-2.64,0.03-5.4,0.67-7.57,1.92L81.93,29.46c-4.07,2.35-4.52,5.91-0.99,7.95l49.63,28.65c1.78,1.03,4.23,1.47,6.75,1.35
			C135,67.44,132.77,67.01,131.12,66.06z"/>
		<path class="st4" d="M192.98,30.03L143.35,1.38c-1.78-1.03-4.24-1.47-6.76-1.35c2.29-0.02,4.49,0.41,6.12,1.35l49.63,28.65
			c3.53,2.04,3.09,5.6-0.99,7.95L143.7,65.49c-2.02,1.16-4.54,1.81-7.01,1.92c2.66-0.02,5.45-0.66,7.64-1.92l47.65-27.51
			C196.06,35.62,196.51,32.07,192.98,30.03z"/>
		<path class="st4" d="M136.65,58.99c-1.7,0-3.32-0.34-4.54-1.04L95.17,36.61c-1.2-0.69-1.86-1.66-1.86-2.72
			c0-1.27,0.95-2.54,2.59-3.5l35.48-20.48c3.08-1.78,7.75-1.97,10.42-0.42l36.95,21.33c1.2,0.69,1.86,1.66,1.86,2.72
			c0,1.27-0.95,2.54-2.59,3.5l-35.48,20.48C140.86,58.49,138.7,58.99,136.65,58.99z M137.27,8.79c-1.98,0-4.08,0.48-5.71,1.43
			L96.08,30.69c-1.54,0.89-2.42,2.06-2.42,3.2c0,0.93,0.6,1.79,1.69,2.42l36.95,21.33c2.58,1.49,7.1,1.3,10.08-0.42l35.48-20.48
			c1.54-0.89,2.42-2.06,2.42-3.2c0-0.93-0.6-1.79-1.69-2.42L141.63,9.79C140.47,9.11,138.9,8.79,137.27,8.79z"/>
		<g>
			<g>
				<path class="st4" d="M145.75,70.95l41.98-24.28c0.38-0.22,0.7-0.82,0.7-1.33v-0.69c0-0.51-0.31-0.75-0.7-0.53l-41.98,24.28
					c-0.38,0.22-0.7,0.82-0.7,1.33v0.69C145.06,70.94,145.37,71.17,145.75,70.95z"/>
				<path class="st9" d="M186.82,46.14c0.38-0.22,0.7-0.82,0.7-1.33v-0.56l0.22-0.13c0.38-0.22,0.7,0.01,0.7,0.53v0.69
					c0,0.51-0.31,1.11-0.7,1.33l-41.98,24.28c-0.38,0.22-0.7-0.01-0.7-0.53V70.3L186.82,46.14z"/>
			</g>
			<g>
				<path class="st4" d="M145.75,78.34l41.98-24.28c0.38-0.22,0.7-0.82,0.7-1.33v-0.69c0-0.51-0.31-0.75-0.7-0.53L145.75,75.8
					c-0.38,0.22-0.7,0.82-0.7,1.33v0.69C145.06,78.33,145.37,78.56,145.75,78.34z"/>
				<path class="st9" d="M186.82,53.53c0.38-0.22,0.7-0.82,0.7-1.33v-0.56l0.22-0.13c0.38-0.22,0.7,0.01,0.7,0.53v0.69
					c0,0.51-0.31,1.11-0.7,1.33l-41.98,24.28c-0.38,0.22-0.7-0.01-0.7-0.53v-0.13L186.82,53.53z"/>
			</g>
			<g>
				<path class="st4" d="M145.75,85.73l41.98-24.28c0.38-0.22,0.7-0.82,0.7-1.33v-0.69c0-0.51-0.31-0.75-0.7-0.53l-41.98,24.28
					c-0.38,0.22-0.7,0.82-0.7,1.33v0.69C145.06,85.72,145.37,85.95,145.75,85.73z"/>
				<path class="st9" d="M186.82,60.92c0.38-0.22,0.7-0.82,0.7-1.33v-0.56l0.22-0.13c0.38-0.22,0.7,0.01,0.7,0.53v0.69
					c0,0.51-0.31,1.11-0.7,1.33l-41.98,24.28c-0.38,0.22-0.7-0.01-0.7-0.53v-0.13L186.82,60.92z"/>
			</g>
			<g>
				<path class="st4" d="M145.75,93.12l41.98-24.28c0.38-0.22,0.7-0.82,0.7-1.33v-0.69c0-0.51-0.31-0.75-0.7-0.53l-41.98,24.28
					c-0.38,0.22-0.7,0.82-0.7,1.33v0.69C145.06,93.1,145.37,93.34,145.75,93.12z"/>
				<path class="st9" d="M186.82,68.31c0.38-0.22,0.7-0.82,0.7-1.33v-0.56l0.22-0.13c0.38-0.22,0.7,0.01,0.7,0.53v0.69
					c0,0.51-0.31,1.11-0.7,1.33l-41.98,24.28c-0.38,0.22-0.7-0.01-0.7-0.53v-0.13L186.82,68.31z"/>
			</g>
			<g>
				<path class="st4" d="M145.75,100.51l41.98-24.28c0.38-0.22,0.7-0.82,0.7-1.33v-0.69c0-0.51-0.31-0.75-0.7-0.53l-41.98,24.28
					c-0.38,0.22-0.7,0.82-0.7,1.33v0.69C145.06,100.49,145.37,100.73,145.75,100.51z"/>
				<path class="st9" d="M186.82,75.7c0.38-0.22,0.7-0.82,0.7-1.33v-0.56l0.22-0.13c0.38-0.22,0.7,0.01,0.7,0.53v0.69
					c0,0.51-0.31,1.11-0.7,1.33l-41.98,24.28c-0.38,0.22-0.7-0.01-0.7-0.53v-0.13L186.82,75.7z"/>
			</g>
			<g>
				<path class="st4" d="M145.75,107.89l41.98-24.28c0.38-0.22,0.7-0.82,0.7-1.33v-0.69c0-0.51-0.31-0.75-0.7-0.53l-41.98,24.28
					c-0.38,0.22-0.7,0.82-0.7,1.33v0.69C145.06,107.88,145.37,108.12,145.75,107.89z"/>
				<path class="st9" d="M186.82,83.09c0.38-0.22,0.7-0.82,0.7-1.33V81.2l0.22-0.13c0.38-0.22,0.7,0.01,0.7,0.53v0.69
					c0,0.51-0.31,1.11-0.7,1.33l-41.98,24.28c-0.38,0.22-0.7-0.01-0.7-0.53v-0.13L186.82,83.09z"/>
			</g>
			<g>
				<path class="st4" d="M145.75,115.28L187.74,91c0.38-0.22,0.7-0.82,0.7-1.33v-0.69c0-0.51-0.31-0.75-0.7-0.53l-41.98,24.28
					c-0.38,0.22-0.7,0.82-0.7,1.33v0.69C145.06,115.27,145.37,115.5,145.75,115.28z"/>
				<path class="st9" d="M186.82,90.47c0.38-0.22,0.7-0.82,0.7-1.33v-0.56l0.22-0.13c0.38-0.22,0.7,0.01,0.7,0.53v0.69
					c0,0.51-0.31,1.11-0.7,1.33l-41.98,24.28c-0.38,0.22-0.7-0.01-0.7-0.53v-0.13L186.82,90.47z"/>
			</g>
			<g>
				<path class="st4" d="M145.75,122.67l41.98-24.28c0.38-0.22,0.7-0.82,0.7-1.33v-0.69c0-0.51-0.31-0.75-0.7-0.53l-41.98,24.28
					c-0.38,0.22-0.7,0.82-0.7,1.33v0.69C145.06,122.66,145.37,122.89,145.75,122.67z"/>
				<path class="st9" d="M186.82,97.86c0.38-0.22,0.7-0.82,0.7-1.33v-0.56l0.22-0.13c0.38-0.22,0.7,0.01,0.7,0.53v0.69
					c0,0.51-0.31,1.11-0.7,1.33l-41.98,24.28c-0.38,0.22-0.7-0.01-0.7-0.53v-0.13L186.82,97.86z"/>
			</g>
			<g>
				<path class="st4" d="M145.75,130.06l41.98-24.28c0.38-0.22,0.7-0.82,0.7-1.33v-0.69c0-0.51-0.31-0.75-0.7-0.53l-41.98,24.28
					c-0.38,0.22-0.7,0.82-0.7,1.33v0.69C145.06,130.05,145.37,130.28,145.75,130.06z"/>
				<path class="st9" d="M186.82,105.25c0.38-0.22,0.7-0.82,0.7-1.33v-0.56l0.22-0.13c0.38-0.22,0.7,0.01,0.7,0.53v0.69
					c0,0.51-0.31,1.11-0.7,1.33l-41.98,24.28c-0.38,0.22-0.7-0.01-0.7-0.53v-0.13L186.82,105.25z"/>
			</g>
		</g>
		<g>
			<g>
				<circle class="st4" cx="136.96" cy="72.15" r="1.13"/>
				<path class="st9" d="M136.96,72.86c-0.55,0-1.01-0.39-1.11-0.92c-0.01,0.07-0.02,0.14-0.02,0.21c0,0.62,0.5,1.13,1.13,1.13
					c0.62,0,1.13-0.5,1.13-1.13c0-0.07-0.01-0.14-0.02-0.21C137.97,72.46,137.51,72.86,136.96,72.86z"/>
			</g>
			<g>
				<circle class="st4" cx="136.96" cy="79.54" r="1.13"/>
				<path class="st9" d="M136.96,80.25c-0.55,0-1.01-0.39-1.11-0.92c-0.01,0.07-0.02,0.14-0.02,0.21c0,0.62,0.5,1.13,1.13,1.13
					c0.62,0,1.13-0.5,1.13-1.13c0-0.07-0.01-0.14-0.02-0.21C137.97,79.85,137.51,80.25,136.96,80.25z"/>
			</g>
			<g>
				<circle class="st4" cx="136.96" cy="86.93" r="1.13"/>
				<path class="st9" d="M136.96,87.63c-0.55,0-1.01-0.39-1.11-0.92c-0.01,0.07-0.02,0.14-0.02,0.21c0,0.62,0.5,1.13,1.13,1.13
					c0.62,0,1.13-0.5,1.13-1.13c0-0.07-0.01-0.14-0.02-0.21C137.97,87.24,137.51,87.63,136.96,87.63z"/>
			</g>
			<g>
				<circle class="st4" cx="136.96" cy="94.32" r="1.13"/>
				<path class="st9" d="M136.96,95.02c-0.55,0-1.01-0.39-1.11-0.92c-0.01,0.07-0.02,0.14-0.02,0.21c0,0.62,0.5,1.13,1.13,1.13
					c0.62,0,1.13-0.5,1.13-1.13c0-0.07-0.01-0.14-0.02-0.21C137.97,94.63,137.51,95.02,136.96,95.02z"/>
			</g>
			<g>
				<circle class="st4" cx="136.96" cy="101.71" r="1.13"/>
				<path class="st9" d="M136.96,102.41c-0.55,0-1.01-0.39-1.11-0.92c-0.01,0.07-0.02,0.14-0.02,0.21c0,0.62,0.5,1.13,1.13,1.13
					c0.62,0,1.13-0.5,1.13-1.13c0-0.07-0.01-0.14-0.02-0.21C137.97,102.02,137.51,102.41,136.96,102.41z"/>
			</g>
			<g>
				<circle class="st4" cx="136.96" cy="109.1" r="1.13"/>
				<path class="st9" d="M136.96,109.8c-0.55,0-1.01-0.39-1.11-0.92c-0.01,0.07-0.02,0.14-0.02,0.21c0,0.62,0.5,1.13,1.13,1.13
					c0.62,0,1.13-0.5,1.13-1.13c0-0.07-0.01-0.14-0.02-0.21C137.97,109.41,137.51,109.8,136.96,109.8z"/>
			</g>
			<g>
				<circle class="st4" cx="136.96" cy="116.48" r="1.13"/>
				<path class="st9" d="M136.96,117.19c-0.55,0-1.01-0.39-1.11-0.92c-0.01,0.07-0.02,0.14-0.02,0.21c0,0.62,0.5,1.13,1.13,1.13
					c0.62,0,1.13-0.5,1.13-1.13c0-0.07-0.01-0.14-0.02-0.21C137.97,116.79,137.51,117.19,136.96,117.19z"/>
			</g>
			<g>
				<circle class="st4" cx="136.96" cy="123.87" r="1.13"/>
				<path class="st9" d="M136.96,124.58c-0.55,0-1.01-0.39-1.11-0.92c-0.01,0.07-0.02,0.14-0.02,0.21c0,0.62,0.5,1.13,1.13,1.13
					c0.62,0,1.13-0.5,1.13-1.13c0-0.07-0.01-0.14-0.02-0.21C137.97,124.18,137.51,124.58,136.96,124.58z"/>
			</g>
			<g>
				<circle class="st4" cx="136.96" cy="131.26" r="1.13"/>
				<path class="st9" d="M136.96,131.97c-0.55,0-1.01-0.39-1.11-0.92c-0.01,0.07-0.02,0.14-0.02,0.21c0,0.62,0.5,1.13,1.13,1.13
					c0.62,0,1.13-0.5,1.13-1.13c0-0.07-0.01-0.14-0.02-0.21C137.97,131.57,137.51,131.97,136.96,131.97z"/>
			</g>
		</g>
	</g>
	<g>
		<g>
			<path class="st10" d="M120.85,120.46c-0.23,0-0.47-0.07-0.71-0.21l-1.68-0.97c-0.91-0.53-1.66-1.94-1.66-3.15V70.78
				c0-0.67,0.23-1.19,0.63-1.42c0.34-0.2,0.77-0.17,1.2,0.08l1.68,0.97c0.91,0.53,1.66,1.94,1.66,3.15v45.35
				c0,0.67-0.23,1.19-0.63,1.42C121.19,120.41,121.02,120.46,120.85,120.46z M117.92,69.57c-0.12,0-0.22,0.03-0.32,0.08
				c-0.29,0.17-0.46,0.58-0.46,1.12v45.35c0,1.1,0.67,2.38,1.49,2.86l1.68,0.97c0.32,0.19,0.63,0.22,0.86,0.08
				c0.29-0.17,0.46-0.58,0.46-1.12V73.56c0-1.1-0.67-2.38-1.49-2.86l-1.68-0.97C118.27,69.63,118.08,69.57,117.92,69.57z"/>
		</g>
	</g>
</g>
<g>
	<g>
		<path class="st1" d="M52.16,200.48L3.67,172.49c-3.45-1.99-3.02-5.47,0.97-7.77l46.55-26.88c3.98-2.3,10-2.55,13.45-0.56
			l48.48,27.99c3.45,1.99,3.02,5.47-0.97,7.76l-46.55,26.88C61.63,202.22,55.61,202.47,52.16,200.48z"/>
		
			<linearGradient id="SVGID_00000141440454541892524870000004763141900483081094_" gradientUnits="userSpaceOnUse" x1="-11.0422" y1="124.6265" x2="131.2543" y2="124.6265">
			<stop  offset="0" style="stop-color:#A31FA9"/>
			<stop  offset="0.0668" style="stop-color:#8B17A0"/>
			<stop  offset="0.1494" style="stop-color:#740F98"/>
			<stop  offset="0.2393" style="stop-color:#640A92"/>
			<stop  offset="0.3408" style="stop-color:#5B078F"/>
			<stop  offset="0.4785" style="stop-color:#58068E"/>
			<stop  offset="0.6264" style="stop-color:#4D22A3"/>
			<stop  offset="0.9436" style="stop-color:#3168DA"/>
			<stop  offset="1" style="stop-color:#2C75E4"/>
		</linearGradient>
		<path style="fill:url(#SVGID_00000141440454541892524870000004763141900483081094_);" d="M116.8,81.89H92.19l-27.4-15.82
			c-3.53-2.04-9.69-1.78-13.77,0.57L24.61,81.89H0.01v68.94h0.01c-0.1,1.38,0.67,2.71,2.36,3.69l49.63,28.65
			c3.53,2.04,9.69,1.78,13.77-0.57l47.65-27.51c2.12-1.22,3.24-2.77,3.35-4.26h0.02V81.89z"/>
		<path class="st3" d="M6.24,81.89H0.01v68.94h0.01c-0.07,0.98,0.3,1.93,1.13,2.75c-0.53-0.7-0.77-1.48-0.71-2.27H0.43V82.38h6.3
			C6.57,82.21,6.41,82.05,6.24,81.89z"/>
		<path class="st4" d="M108.92,81.89c-0.04,0.14-0.09,0.28-0.14,0.41h7.58v68.94h-0.02c-0.07,0.92-0.53,1.87-1.37,2.75
			c1.12-0.99,1.73-2.09,1.81-3.16h0.02V81.89H108.92z"/>
		<polygon class="st5" points="17.4,163.19 17.4,83.23 8.46,83.23 8.46,158.03 		"/>
		<polygon class="st6" points="22.88,166.36 22.88,88.6 20.44,88.6 20.44,164.95 		"/>
		<polygon class="st7" points="27.25,168.88 27.25,89.53 24.81,89.53 24.81,167.47 		"/>
		
			<linearGradient id="SVGID_00000042011806753079893220000004278330450401798839_" gradientUnits="userSpaceOnUse" x1="332.0667" y1="685.1173" x2="399.1882" y2="626.9883" gradientTransform="matrix(0.866 0.5 -1 0.5774 396.5952 -479.7253)">
			<stop  offset="0" style="stop-color:#267FE5"/>
			<stop  offset="0.1699" style="stop-color:#2C87E7"/>
			<stop  offset="0.441" style="stop-color:#3D9FEB"/>
			<stop  offset="0.7773" style="stop-color:#59C4F2"/>
			<stop  offset="1" style="stop-color:#6EE1F8"/>
		</linearGradient>
		<path style="fill:url(#SVGID_00000042011806753079893220000004278330450401798839_);" d="M52.01,114.24L2.38,85.58
			c-3.53-2.04-3.09-5.6,0.99-7.95l47.65-27.51c4.07-2.35,10.24-2.61,13.77-0.57l49.63,28.65c3.53,2.04,3.09,5.6-0.99,7.95
			l-47.65,27.51C61.7,116.02,55.54,116.27,52.01,114.24z"/>
		<path class="st4" d="M52.56,114.24L2.93,85.58c-3.53-2.04-3.09-5.6,0.99-7.95l47.65-27.51c2.02-1.17,4.55-1.81,7.02-1.92
			c-2.64,0.03-5.4,0.67-7.57,1.92L3.37,77.63c-4.07,2.35-4.52,5.91-0.99,7.95l49.63,28.65c1.78,1.03,4.23,1.47,6.75,1.35
			C56.44,115.62,54.21,115.19,52.56,114.24z"/>
		<path class="st4" d="M114.42,78.2L64.79,49.55c-1.78-1.03-4.24-1.47-6.76-1.35c2.29-0.02,4.49,0.41,6.12,1.35l49.63,28.65
			c3.53,2.04,3.09,5.6-0.99,7.95l-47.65,27.51c-2.02,1.16-4.54,1.81-7.01,1.92c2.66-0.02,5.45-0.66,7.64-1.92l47.65-27.51
			C117.5,83.8,117.95,80.24,114.42,78.2z"/>
		<path class="st4" d="M58.09,107.16c-1.7,0-3.32-0.34-4.54-1.04L16.61,84.79c-1.2-0.69-1.86-1.66-1.86-2.72
			c0-1.27,0.95-2.54,2.59-3.5l35.48-20.48c3.08-1.78,7.75-1.97,10.42-0.42L100.19,79c1.2,0.69,1.86,1.66,1.86,2.72
			c0,1.27-0.95,2.54-2.59,3.5L63.98,105.7C62.3,106.67,60.14,107.16,58.09,107.16z M58.71,56.96c-1.98,0-4.08,0.48-5.71,1.43
			L17.52,78.87c-1.54,0.89-2.42,2.06-2.42,3.2c0,0.93,0.6,1.79,1.69,2.42l36.95,21.33c2.58,1.49,7.1,1.3,10.08-0.42l35.48-20.48
			c1.54-0.89,2.42-2.06,2.42-3.2c0-0.93-0.6-1.79-1.69-2.42L63.07,57.96C61.91,57.29,60.34,56.96,58.71,56.96z"/>
		<g>
			<g>
				<path class="st4" d="M67.19,119.13l41.98-24.28c0.38-0.22,0.7-0.82,0.7-1.33v-0.69c0-0.51-0.31-0.75-0.7-0.53l-41.98,24.28
					c-0.38,0.22-0.7,0.82-0.7,1.33v0.69C66.5,119.11,66.81,119.35,67.19,119.13z"/>
				<path class="st9" d="M108.26,94.32c0.38-0.22,0.7-0.82,0.7-1.33v-0.56l0.22-0.13c0.38-0.22,0.7,0.01,0.7,0.53v0.69
					c0,0.51-0.31,1.11-0.7,1.33l-41.98,24.28c-0.38,0.22-0.7-0.01-0.7-0.53v-0.13L108.26,94.32z"/>
			</g>
			<g>
				<path class="st4" d="M67.19,126.52l41.98-24.28c0.38-0.22,0.7-0.82,0.7-1.33v-0.69c0-0.51-0.31-0.75-0.7-0.53l-41.98,24.28
					c-0.38,0.22-0.7,0.82-0.7,1.33v0.69C66.5,126.5,66.81,126.74,67.19,126.52z"/>
				<path class="st9" d="M108.26,101.71c0.38-0.22,0.7-0.82,0.7-1.33v-0.56l0.22-0.13c0.38-0.22,0.7,0.01,0.7,0.53v0.69
					c0,0.51-0.31,1.11-0.7,1.33l-41.98,24.28c-0.38,0.22-0.7-0.01-0.7-0.53v-0.13L108.26,101.71z"/>
			</g>
			<g>
				<path class="st4" d="M67.19,133.91l41.98-24.28c0.38-0.22,0.7-0.82,0.7-1.33v-0.69c0-0.51-0.31-0.75-0.7-0.53l-41.98,24.28
					c-0.38,0.22-0.7,0.82-0.7,1.33v0.69C66.5,133.89,66.81,134.13,67.19,133.91z"/>
				<path class="st9" d="M108.26,109.1c0.38-0.22,0.7-0.82,0.7-1.33v-0.56l0.22-0.13c0.38-0.22,0.7,0.01,0.7,0.53v0.69
					c0,0.51-0.31,1.11-0.7,1.33L67.19,133.9c-0.38,0.22-0.7-0.01-0.7-0.53v-0.13L108.26,109.1z"/>
			</g>
			<g>
				<path class="st4" d="M67.19,141.29l41.98-24.28c0.38-0.22,0.7-0.82,0.7-1.33v-0.69c0-0.51-0.31-0.75-0.7-0.53l-41.98,24.28
					c-0.38,0.22-0.7,0.82-0.7,1.33v0.69C66.5,141.28,66.81,141.52,67.19,141.29z"/>
				<path class="st9" d="M108.26,116.49c0.38-0.22,0.7-0.82,0.7-1.33v-0.56l0.22-0.13c0.38-0.22,0.7,0.01,0.7,0.53v0.69
					c0,0.51-0.31,1.11-0.7,1.33l-41.98,24.28c-0.38,0.22-0.7-0.01-0.7-0.53v-0.13L108.26,116.49z"/>
			</g>
			<g>
				<path class="st4" d="M67.19,148.68l41.98-24.28c0.38-0.22,0.7-0.82,0.7-1.33v-0.69c0-0.51-0.31-0.75-0.7-0.53l-41.98,24.28
					c-0.38,0.22-0.7,0.82-0.7,1.33v0.69C66.5,148.67,66.81,148.9,67.19,148.68z"/>
				<path class="st9" d="M108.26,123.87c0.38-0.22,0.7-0.82,0.7-1.33v-0.56l0.22-0.13c0.38-0.22,0.7,0.01,0.7,0.53v0.69
					c0,0.51-0.31,1.11-0.7,1.33l-41.98,24.28c-0.38,0.22-0.7-0.01-0.7-0.53v-0.13L108.26,123.87z"/>
			</g>
			<g>
				<path class="st4" d="M67.19,156.07l41.98-24.28c0.38-0.22,0.7-0.82,0.7-1.33v-0.69c0-0.51-0.31-0.75-0.7-0.53l-41.98,24.28
					c-0.38,0.22-0.7,0.82-0.7,1.33v0.69C66.5,156.06,66.81,156.29,67.19,156.07z"/>
				<path class="st9" d="M108.26,131.26c0.38-0.22,0.7-0.82,0.7-1.33v-0.56l0.22-0.13c0.38-0.22,0.7,0.01,0.7,0.53v0.69
					c0,0.51-0.31,1.11-0.7,1.33l-41.98,24.28c-0.38,0.22-0.7-0.01-0.7-0.53v-0.13L108.26,131.26z"/>
			</g>
			<g>
				<path class="st4" d="M67.19,163.46l41.98-24.28c0.38-0.22,0.7-0.82,0.7-1.33v-0.69c0-0.51-0.31-0.75-0.7-0.53l-41.98,24.28
					c-0.38,0.22-0.7,0.82-0.7,1.33v0.69C66.5,163.45,66.81,163.68,67.19,163.46z"/>
				<path class="st9" d="M108.26,138.65c0.38-0.22,0.7-0.82,0.7-1.33v-0.56l0.22-0.13c0.38-0.22,0.7,0.01,0.7,0.53v0.69
					c0,0.51-0.31,1.11-0.7,1.33l-41.98,24.28c-0.38,0.22-0.7-0.01-0.7-0.53v-0.13L108.26,138.65z"/>
			</g>
			<g>
				<path class="st4" d="M67.19,170.85l41.98-24.28c0.38-0.22,0.7-0.82,0.7-1.33v-0.69c0-0.51-0.31-0.75-0.7-0.53L67.19,168.3
					c-0.38,0.22-0.7,0.82-0.7,1.33v0.69C66.5,170.83,66.81,171.07,67.19,170.85z"/>
				<path class="st9" d="M108.26,146.04c0.38-0.22,0.7-0.82,0.7-1.33v-0.56l0.22-0.13c0.38-0.22,0.7,0.01,0.7,0.53v0.69
					c0,0.51-0.31,1.11-0.7,1.33l-41.98,24.28c-0.38,0.22-0.7-0.01-0.7-0.53v-0.13L108.26,146.04z"/>
			</g>
			<g>
				<path class="st4" d="M67.19,178.24l41.98-24.28c0.38-0.22,0.7-0.82,0.7-1.33v-0.69c0-0.51-0.31-0.75-0.7-0.53l-41.98,24.28
					c-0.38,0.22-0.7,0.82-0.7,1.33v0.69C66.5,178.22,66.81,178.46,67.19,178.24z"/>
				<path class="st9" d="M108.26,153.43c0.38-0.22,0.7-0.82,0.7-1.33v-0.56l0.22-0.13c0.38-0.22,0.7,0.01,0.7,0.53v0.69
					c0,0.51-0.31,1.11-0.7,1.33l-41.98,24.28c-0.38,0.22-0.7-0.01-0.7-0.53v-0.13L108.26,153.43z"/>
			</g>
		</g>
		<g>
			<g>
				<circle class="st4" cx="58.4" cy="120.33" r="1.13"/>
				<path class="st9" d="M58.4,121.03c-0.55,0-1.01-0.39-1.11-0.92c-0.01,0.07-0.02,0.14-0.02,0.21c0,0.62,0.5,1.13,1.13,1.13
					s1.13-0.5,1.13-1.13c0-0.07-0.01-0.14-0.02-0.21C59.41,120.64,58.95,121.03,58.4,121.03z"/>
			</g>
			<g>
				<circle class="st4" cx="58.4" cy="127.72" r="1.13"/>
				<path class="st9" d="M58.4,128.42c-0.55,0-1.01-0.39-1.11-0.92c-0.01,0.07-0.02,0.14-0.02,0.21c0,0.62,0.5,1.13,1.13,1.13
					s1.13-0.5,1.13-1.13c0-0.07-0.01-0.14-0.02-0.21C59.41,128.03,58.95,128.42,58.4,128.42z"/>
			</g>
			<g>
				<circle class="st4" cx="58.4" cy="135.11" r="1.13"/>
				<path class="st9" d="M58.4,135.81c-0.55,0-1.01-0.39-1.11-0.92c-0.01,0.07-0.02,0.14-0.02,0.21c0,0.62,0.5,1.13,1.13,1.13
					s1.13-0.5,1.13-1.13c0-0.07-0.01-0.14-0.02-0.21C59.41,135.42,58.95,135.81,58.4,135.81z"/>
			</g>
			<g>
				<circle class="st4" cx="58.4" cy="142.5" r="1.13"/>
				<path class="st9" d="M58.4,143.2c-0.55,0-1.01-0.39-1.11-0.92c-0.01,0.07-0.02,0.14-0.02,0.21c0,0.62,0.5,1.13,1.13,1.13
					s1.13-0.5,1.13-1.13c0-0.07-0.01-0.14-0.02-0.21C59.41,142.8,58.95,143.2,58.4,143.2z"/>
			</g>
			<g>
				<circle class="st4" cx="58.4" cy="149.88" r="1.13"/>
				<path class="st9" d="M58.4,150.59c-0.55,0-1.01-0.39-1.11-0.92c-0.01,0.07-0.02,0.14-0.02,0.21c0,0.62,0.5,1.13,1.13,1.13
					s1.13-0.5,1.13-1.13c0-0.07-0.01-0.14-0.02-0.21C59.41,150.19,58.95,150.59,58.4,150.59z"/>
			</g>
			<g>
				<circle class="st4" cx="58.4" cy="157.27" r="1.13"/>
				<path class="st9" d="M58.4,157.98c-0.55,0-1.01-0.39-1.11-0.92c-0.01,0.07-0.02,0.14-0.02,0.21c0,0.62,0.5,1.13,1.13,1.13
					s1.13-0.5,1.13-1.13c0-0.07-0.01-0.14-0.02-0.21C59.41,157.58,58.95,157.98,58.4,157.98z"/>
			</g>
			<g>
				<circle class="st4" cx="58.4" cy="164.66" r="1.13"/>
				<path class="st9" d="M58.4,165.36c-0.55,0-1.01-0.39-1.11-0.92c-0.01,0.07-0.02,0.14-0.02,0.21c0,0.62,0.5,1.13,1.13,1.13
					s1.13-0.5,1.13-1.13c0-0.07-0.01-0.14-0.02-0.21C59.41,164.97,58.95,165.36,58.4,165.36z"/>
			</g>
			<g>
				<circle class="st4" cx="58.4" cy="172.05" r="1.13"/>
				<path class="st9" d="M58.4,172.75c-0.55,0-1.01-0.39-1.11-0.92c-0.01,0.07-0.02,0.14-0.02,0.21c0,0.62,0.5,1.13,1.13,1.13
					s1.13-0.5,1.13-1.13c0-0.07-0.01-0.14-0.02-0.21C59.41,172.36,58.95,172.75,58.4,172.75z"/>
			</g>
			<g>
				<circle class="st4" cx="58.4" cy="179.44" r="1.13"/>
				<path class="st9" d="M58.4,180.14c-0.55,0-1.01-0.39-1.11-0.92c-0.01,0.07-0.02,0.14-0.02,0.21c0,0.62,0.5,1.13,1.13,1.13
					s1.13-0.5,1.13-1.13c0-0.07-0.01-0.14-0.02-0.21C59.41,179.75,58.95,180.14,58.4,180.14z"/>
			</g>
		</g>
	</g>
	<g>
		<g>
			<path class="st10" d="M42.29,168.63c-0.23,0-0.47-0.07-0.71-0.21l-1.68-0.97c-0.91-0.53-1.66-1.94-1.66-3.15v-45.35
				c0-0.67,0.23-1.19,0.63-1.42c0.34-0.2,0.77-0.17,1.2,0.08l1.68,0.97c0.91,0.53,1.66,1.94,1.66,3.15v45.35
				c0,0.67-0.23,1.19-0.63,1.42C42.63,168.59,42.46,168.63,42.29,168.63z M39.36,117.75c-0.12,0-0.22,0.03-0.32,0.08
				c-0.29,0.17-0.46,0.58-0.46,1.12v45.35c0,1.1,0.67,2.38,1.49,2.86l1.68,0.97c0.32,0.19,0.63,0.22,0.86,0.08
				c0.29-0.17,0.46-0.58,0.46-1.12v-45.35c0-1.1-0.67-2.38-1.49-2.86l-1.68-0.97C39.71,117.8,39.52,117.75,39.36,117.75z"/>
		</g>
	</g>
</g>
<g>
	<g>
		<path class="st1" d="M209.28,199.17l-48.48-27.99c-3.45-1.99-3.01-5.47,0.97-7.76l46.55-26.88c3.98-2.3,10-2.55,13.45-0.56
			l48.48,27.99c3.45,1.99,3.02,5.47-0.97,7.76l-46.55,26.88C218.75,200.91,212.73,201.16,209.28,199.17z"/>
		
			<linearGradient id="SVGID_00000047022792627545459030000015710499964380152243_" gradientUnits="userSpaceOnUse" x1="146.0774" y1="123.3187" x2="288.3738" y2="123.3187">
			<stop  offset="0" style="stop-color:#A31FA9"/>
			<stop  offset="0.0668" style="stop-color:#8B17A0"/>
			<stop  offset="0.1494" style="stop-color:#740F98"/>
			<stop  offset="0.2393" style="stop-color:#640A92"/>
			<stop  offset="0.3408" style="stop-color:#5B078F"/>
			<stop  offset="0.4785" style="stop-color:#58068E"/>
			<stop  offset="0.6264" style="stop-color:#4D22A3"/>
			<stop  offset="0.9436" style="stop-color:#3168DA"/>
			<stop  offset="1" style="stop-color:#2C75E4"/>
		</linearGradient>
		<path style="fill:url(#SVGID_00000047022792627545459030000015710499964380152243_);" d="M273.92,80.59h-24.61l-27.4-15.82
			c-3.53-2.04-9.69-1.78-13.77,0.57l-26.41,15.25h-24.6v68.94h0.01c-0.1,1.38,0.67,2.71,2.36,3.69l49.63,28.65
			c3.53,2.04,9.69,1.78,13.77-0.57l47.65-27.51c2.12-1.22,3.24-2.77,3.35-4.26h0.02V80.59z"/>
		<path class="st3" d="M163.36,80.59h-6.23v68.94h0.01c-0.07,0.98,0.3,1.93,1.13,2.75c-0.53-0.7-0.77-1.48-0.71-2.27h-0.01V81.07
			h6.3C163.69,80.9,163.53,80.74,163.36,80.59z"/>
		<path class="st4" d="M266.04,80.59c-0.04,0.14-0.09,0.28-0.14,0.41h7.58v68.94h-0.02c-0.07,0.92-0.53,1.87-1.37,2.75
			c1.12-0.99,1.73-2.09,1.81-3.16h0.02V80.59H266.04z"/>
		<polygon class="st5" points="174.51,161.88 174.51,81.92 165.58,81.92 165.58,156.72 		"/>
		<polygon class="st6" points="180,165.05 180,87.29 177.56,87.29 177.56,163.64 		"/>
		<polygon class="st7" points="184.37,167.58 184.37,88.23 181.93,88.23 181.93,166.17 		"/>
		
			<linearGradient id="SVGID_00000123405273571084272660000016367365939684756907_" gradientUnits="userSpaceOnUse" x1="421.4771" y1="605.4272" x2="488.5986" y2="547.2982" gradientTransform="matrix(0.866 0.5 -1 0.5774 396.5952 -479.7253)">
			<stop  offset="0" style="stop-color:#267FE5"/>
			<stop  offset="0.1699" style="stop-color:#2C87E7"/>
			<stop  offset="0.441" style="stop-color:#3D9FEB"/>
			<stop  offset="0.7773" style="stop-color:#59C4F2"/>
			<stop  offset="1" style="stop-color:#6EE1F8"/>
		</linearGradient>
		<path style="fill:url(#SVGID_00000123405273571084272660000016367365939684756907_);" d="M209.13,112.93L159.5,84.27
			c-3.53-2.04-3.09-5.6,0.99-7.95l47.65-27.51c4.07-2.35,10.24-2.61,13.77-0.57l49.63,28.65c3.53,2.04,3.09,5.6-0.99,7.95
			l-47.65,27.51C218.82,114.71,212.66,114.96,209.13,112.93z"/>
		<path class="st4" d="M209.68,112.93l-49.63-28.65c-3.53-2.04-3.09-5.6,0.99-7.95l47.65-27.51c2.02-1.17,4.55-1.81,7.02-1.92
			c-2.64,0.03-5.4,0.67-7.57,1.92l-47.65,27.51c-4.07,2.35-4.52,5.91-0.99,7.95l49.63,28.65c1.78,1.03,4.23,1.47,6.75,1.35
			C213.56,114.31,211.33,113.88,209.68,112.93z"/>
		<path class="st4" d="M271.54,76.9l-49.63-28.65c-1.78-1.03-4.24-1.47-6.76-1.35c2.29-0.02,4.49,0.41,6.12,1.35L270.9,76.9
			c3.53,2.04,3.09,5.6-0.99,7.95l-47.65,27.51c-2.02,1.16-4.54,1.81-7.01,1.92c2.66-0.02,5.45-0.66,7.64-1.92l47.65-27.51
			C274.62,82.49,275.07,78.93,271.54,76.9z"/>
		<path class="st4" d="M215.21,105.85c-1.7,0-3.32-0.34-4.54-1.04l-36.95-21.33c-1.2-0.69-1.86-1.66-1.86-2.72
			c0-1.27,0.95-2.54,2.59-3.5l35.48-20.48c3.08-1.78,7.75-1.97,10.42-0.42l36.95,21.33c1.2,0.69,1.86,1.66,1.86,2.72
			c0,1.27-0.95,2.54-2.59,3.5l-35.48,20.48C219.42,105.36,217.26,105.85,215.21,105.85z M215.83,55.65c-1.98,0-4.08,0.48-5.71,1.43
			l-35.48,20.48c-1.54,0.89-2.42,2.06-2.42,3.2c0,0.93,0.6,1.79,1.69,2.42l36.95,21.33c2.58,1.49,7.1,1.3,10.08-0.42l35.48-20.48
			c1.54-0.89,2.42-2.06,2.42-3.2c0-0.93-0.6-1.79-1.69-2.42l-36.95-21.33C219.03,55.98,217.46,55.65,215.83,55.65z"/>
		<g>
			<g>
				<path class="st4" d="M224.31,117.82l41.98-24.28c0.38-0.22,0.7-0.82,0.7-1.33v-0.69c0-0.51-0.31-0.75-0.7-0.53l-41.98,24.28
					c-0.38,0.22-0.7,0.82-0.7,1.33v0.69C223.62,117.81,223.93,118.04,224.31,117.82z"/>
				<path class="st9" d="M265.38,93.01c0.38-0.22,0.7-0.82,0.7-1.33v-0.56l0.22-0.13c0.38-0.22,0.7,0.01,0.7,0.53v0.69
					c0,0.51-0.31,1.11-0.7,1.33l-41.98,24.28c-0.38,0.22-0.7-0.01-0.7-0.53v-0.13L265.38,93.01z"/>
			</g>
			<g>
				<path class="st4" d="M224.31,125.21l41.98-24.28c0.38-0.22,0.7-0.82,0.7-1.33v-0.69c0-0.51-0.31-0.75-0.7-0.53l-41.98,24.28
					c-0.38,0.22-0.7,0.82-0.7,1.33v0.69C223.62,125.2,223.93,125.43,224.31,125.21z"/>
				<path class="st9" d="M265.38,100.4c0.38-0.22,0.7-0.82,0.7-1.33v-0.56l0.22-0.13c0.38-0.22,0.7,0.01,0.7,0.53v0.69
					c0,0.51-0.31,1.11-0.7,1.33l-41.98,24.28c-0.38,0.22-0.7-0.01-0.7-0.53v-0.13L265.38,100.4z"/>
			</g>
			<g>
				<path class="st4" d="M224.31,132.6l41.98-24.28c0.38-0.22,0.7-0.82,0.7-1.33v-0.69c0-0.51-0.31-0.75-0.7-0.53l-41.98,24.28
					c-0.38,0.22-0.7,0.82-0.7,1.33v0.69C223.62,132.58,223.93,132.82,224.31,132.6z"/>
				<path class="st9" d="M265.38,107.79c0.38-0.22,0.7-0.82,0.7-1.33v-0.56l0.22-0.13c0.38-0.22,0.7,0.01,0.7,0.53v0.69
					c0,0.51-0.31,1.11-0.7,1.33l-41.98,24.28c-0.38,0.22-0.7-0.01-0.7-0.53v-0.13L265.38,107.79z"/>
			</g>
			<g>
				<path class="st4" d="M224.31,139.99l41.98-24.28c0.38-0.22,0.7-0.82,0.7-1.33v-0.69c0-0.51-0.31-0.75-0.7-0.53l-41.98,24.28
					c-0.38,0.22-0.7,0.82-0.7,1.33v0.69C223.62,139.97,223.93,140.21,224.31,139.99z"/>
				<path class="st9" d="M265.38,115.18c0.38-0.22,0.7-0.82,0.7-1.33v-0.56l0.22-0.13c0.38-0.22,0.7,0.01,0.7,0.53v0.69
					c0,0.51-0.31,1.11-0.7,1.33l-41.98,24.28c-0.38,0.22-0.7-0.01-0.7-0.53v-0.13L265.38,115.18z"/>
			</g>
			<g>
				<path class="st4" d="M224.31,147.37l41.98-24.28c0.38-0.22,0.7-0.82,0.7-1.33v-0.69c0-0.51-0.31-0.75-0.7-0.53l-41.98,24.28
					c-0.38,0.22-0.7,0.82-0.7,1.33v0.69C223.62,147.36,223.93,147.6,224.31,147.37z"/>
				<path class="st9" d="M265.38,122.57c0.38-0.22,0.7-0.82,0.7-1.33v-0.56l0.22-0.13c0.38-0.22,0.7,0.01,0.7,0.53v0.69
					c0,0.51-0.31,1.11-0.7,1.33l-41.98,24.28c-0.38,0.22-0.7-0.01-0.7-0.53v-0.13L265.38,122.57z"/>
			</g>
			<g>
				<path class="st4" d="M224.31,154.76l41.98-24.28c0.38-0.22,0.7-0.82,0.7-1.33v-0.69c0-0.51-0.31-0.75-0.7-0.53l-41.98,24.28
					c-0.38,0.22-0.7,0.82-0.7,1.33v0.69C223.62,154.75,223.93,154.98,224.31,154.76z"/>
				<path class="st9" d="M265.38,129.95c0.38-0.22,0.7-0.82,0.7-1.33v-0.56l0.22-0.13c0.38-0.22,0.7,0.01,0.7,0.53v0.69
					c0,0.51-0.31,1.11-0.7,1.33l-41.98,24.28c-0.38,0.22-0.7-0.01-0.7-0.53v-0.13L265.38,129.95z"/>
			</g>
			<g>
				<path class="st4" d="M224.31,162.15l41.98-24.28c0.38-0.22,0.7-0.82,0.7-1.33v-0.69c0-0.51-0.31-0.75-0.7-0.53l-41.98,24.28
					c-0.38,0.22-0.7,0.82-0.7,1.33v0.69C223.62,162.14,223.93,162.37,224.31,162.15z"/>
				<path class="st9" d="M265.38,137.34c0.38-0.22,0.7-0.82,0.7-1.33v-0.56l0.22-0.13c0.38-0.22,0.7,0.01,0.7,0.53v0.69
					c0,0.51-0.31,1.11-0.7,1.33l-41.98,24.28c-0.38,0.22-0.7-0.01-0.7-0.53v-0.13L265.38,137.34z"/>
			</g>
			<g>
				<path class="st4" d="M224.31,169.54l41.98-24.28c0.38-0.22,0.7-0.82,0.7-1.33v-0.69c0-0.51-0.31-0.75-0.7-0.53L224.31,167
					c-0.38,0.22-0.7,0.82-0.7,1.33v0.69C223.62,169.53,223.93,169.76,224.31,169.54z"/>
				<path class="st9" d="M265.38,144.73c0.38-0.22,0.7-0.82,0.7-1.33v-0.56l0.22-0.13c0.38-0.22,0.7,0.01,0.7,0.53v0.69
					c0,0.51-0.31,1.11-0.7,1.33l-41.98,24.28c-0.38,0.22-0.7-0.01-0.7-0.53v-0.13L265.38,144.73z"/>
			</g>
			<g>
				<path class="st4" d="M224.31,176.93l41.98-24.28c0.38-0.22,0.7-0.82,0.7-1.33v-0.69c0-0.51-0.31-0.75-0.7-0.53l-41.98,24.28
					c-0.38,0.22-0.7,0.82-0.7,1.33v0.69C223.62,176.91,223.93,177.15,224.31,176.93z"/>
				<path class="st9" d="M265.38,152.12c0.38-0.22,0.7-0.82,0.7-1.33v-0.56l0.22-0.13c0.38-0.22,0.7,0.01,0.7,0.53v0.69
					c0,0.51-0.31,1.11-0.7,1.33l-41.98,24.28c-0.38,0.22-0.7-0.01-0.7-0.53v-0.13L265.38,152.12z"/>
			</g>
		</g>
		<g>
			<g>
				<circle class="st4" cx="215.52" cy="119.02" r="1.13"/>
				<path class="st9" d="M215.52,119.73c-0.55,0-1.01-0.39-1.11-0.92c-0.01,0.07-0.02,0.14-0.02,0.21c0,0.62,0.5,1.13,1.13,1.13
					s1.13-0.5,1.13-1.13c0-0.07-0.01-0.14-0.02-0.21C216.53,119.33,216.07,119.73,215.52,119.73z"/>
			</g>
			<g>
				<circle class="st4" cx="215.52" cy="126.41" r="1.13"/>
				<path class="st9" d="M215.52,127.11c-0.55,0-1.01-0.39-1.11-0.92c-0.01,0.07-0.02,0.14-0.02,0.21c0,0.62,0.5,1.13,1.13,1.13
					s1.13-0.5,1.13-1.13c0-0.07-0.01-0.14-0.02-0.21C216.53,126.72,216.07,127.11,215.52,127.11z"/>
			</g>
			<g>
				<circle class="st4" cx="215.52" cy="133.8" r="1.13"/>
				<path class="st9" d="M215.52,134.5c-0.55,0-1.01-0.39-1.11-0.92c-0.01,0.07-0.02,0.14-0.02,0.21c0,0.62,0.5,1.13,1.13,1.13
					s1.13-0.5,1.13-1.13c0-0.07-0.01-0.14-0.02-0.21C216.53,134.11,216.07,134.5,215.52,134.5z"/>
			</g>
			<g>
				<circle class="st4" cx="215.52" cy="141.19" r="1.13"/>
				<path class="st9" d="M215.52,141.89c-0.55,0-1.01-0.39-1.11-0.92c-0.01,0.07-0.02,0.14-0.02,0.21c0,0.62,0.5,1.13,1.13,1.13
					s1.13-0.5,1.13-1.13c0-0.07-0.01-0.14-0.02-0.21C216.53,141.5,216.07,141.89,215.52,141.89z"/>
			</g>
			<g>
				<circle class="st4" cx="215.52" cy="148.58" r="1.13"/>
				<path class="st9" d="M215.52,149.28c-0.55,0-1.01-0.39-1.11-0.92c-0.01,0.07-0.02,0.14-0.02,0.21c0,0.62,0.5,1.13,1.13,1.13
					s1.13-0.5,1.13-1.13c0-0.07-0.01-0.14-0.02-0.21C216.53,148.89,216.07,149.28,215.52,149.28z"/>
			</g>
			<g>
				<circle class="st4" cx="215.52" cy="155.96" r="1.13"/>
				<path class="st9" d="M215.52,156.67c-0.55,0-1.01-0.39-1.11-0.92c-0.01,0.07-0.02,0.14-0.02,0.21c0,0.62,0.5,1.13,1.13,1.13
					s1.13-0.5,1.13-1.13c0-0.07-0.01-0.14-0.02-0.21C216.53,156.27,216.07,156.67,215.52,156.67z"/>
			</g>
			<g>
				<circle class="st4" cx="215.52" cy="163.35" r="1.13"/>
				<path class="st9" d="M215.52,164.06c-0.55,0-1.01-0.39-1.11-0.92c-0.01,0.07-0.02,0.14-0.02,0.21c0,0.62,0.5,1.13,1.13,1.13
					s1.13-0.5,1.13-1.13c0-0.07-0.01-0.14-0.02-0.21C216.53,163.66,216.07,164.06,215.52,164.06z"/>
			</g>
			<g>
				<circle class="st4" cx="215.52" cy="170.74" r="1.13"/>
				<path class="st9" d="M215.52,171.45c-0.55,0-1.01-0.39-1.11-0.92c-0.01,0.07-0.02,0.14-0.02,0.21c0,0.62,0.5,1.13,1.13,1.13
					s1.13-0.5,1.13-1.13c0-0.07-0.01-0.14-0.02-0.21C216.53,171.05,216.07,171.45,215.52,171.45z"/>
			</g>
			<g>
				<circle class="st4" cx="215.52" cy="178.13" r="1.13"/>
				<path class="st9" d="M215.52,178.83c-0.55,0-1.01-0.39-1.11-0.92c-0.01,0.07-0.02,0.14-0.02,0.21c0,0.62,0.5,1.13,1.13,1.13
					s1.13-0.5,1.13-1.13c0-0.07-0.01-0.14-0.02-0.21C216.53,178.44,216.07,178.83,215.52,178.83z"/>
			</g>
		</g>
	</g>
	<g>
		<g>
			<path class="st10" d="M199.41,167.32c-0.23,0-0.47-0.07-0.71-0.21l-1.68-0.97c-0.91-0.53-1.66-1.94-1.66-3.15v-45.35
				c0-0.67,0.23-1.19,0.63-1.42c0.34-0.2,0.77-0.17,1.2,0.08l1.68,0.97c0.91,0.53,1.66,1.94,1.66,3.15v45.35
				c0,0.67-0.23,1.19-0.63,1.42C199.75,167.28,199.58,167.32,199.41,167.32z M196.48,116.44c-0.12,0-0.22,0.03-0.32,0.08
				c-0.29,0.17-0.46,0.58-0.46,1.12v45.35c0,1.1,0.67,2.38,1.49,2.86l1.68,0.97c0.32,0.19,0.63,0.22,0.86,0.08
				c0.29-0.17,0.46-0.58,0.46-1.12v-45.35c0-1.1-0.67-2.38-1.49-2.86l-1.68-0.97C196.83,116.49,196.64,116.44,196.48,116.44z"/>
		</g>
	</g>
</g>
<g>
	<g>
		<path class="st1" d="M130.72,247.35l-48.48-27.99c-3.45-1.99-3.01-5.47,0.97-7.76l46.55-26.88c3.98-2.3,10-2.55,13.45-0.56
			l48.48,27.99c3.45,1.99,3.01,5.47-0.97,7.77l-46.55,26.88C140.19,249.09,134.17,249.34,130.72,247.35z"/>
		
			<linearGradient id="SVGID_00000008135014903154236250000012190430538468843911_" gradientUnits="userSpaceOnUse" x1="67.5176" y1="171.4947" x2="209.814" y2="171.4947">
			<stop  offset="0" style="stop-color:#A31FA9"/>
			<stop  offset="0.0668" style="stop-color:#8B17A0"/>
			<stop  offset="0.1494" style="stop-color:#740F98"/>
			<stop  offset="0.2393" style="stop-color:#640A92"/>
			<stop  offset="0.3408" style="stop-color:#5B078F"/>
			<stop  offset="0.4785" style="stop-color:#58068E"/>
			<stop  offset="0.6264" style="stop-color:#4D22A3"/>
			<stop  offset="0.9436" style="stop-color:#3168DA"/>
			<stop  offset="1" style="stop-color:#2C75E4"/>
		</linearGradient>
		<path style="fill:url(#SVGID_00000008135014903154236250000012190430538468843911_);" d="M195.36,128.76h-24.61l-27.4-15.82
			c-3.53-2.04-9.69-1.78-13.77,0.57l-26.41,15.25h-24.6v68.94h0.01c-0.1,1.38,0.67,2.71,2.36,3.69l49.63,28.65
			c3.53,2.04,9.69,1.78,13.77-0.57l47.65-27.51c2.12-1.22,3.24-2.77,3.35-4.26h0.02V128.76z"/>
		<path class="st3" d="M84.8,128.76h-6.23v68.94h0.01c-0.07,0.98,0.3,1.93,1.13,2.75c-0.53-0.7-0.77-1.48-0.71-2.27h-0.01v-68.94
			h6.3C85.13,129.08,84.97,128.92,84.8,128.76z"/>
		<path class="st4" d="M187.48,128.76c-0.04,0.14-0.09,0.28-0.14,0.41h7.58v68.94h-0.02c-0.07,0.92-0.53,1.87-1.37,2.75
			c1.12-0.99,1.73-2.09,1.81-3.16h0.02v-68.94H187.48z"/>
		<polygon class="st5" points="95.96,210.06 95.96,130.09 87.02,130.09 87.02,204.9 		"/>
		<polygon class="st6" points="101.44,213.23 101.44,135.46 99,135.46 99,211.82 		"/>
		<polygon class="st7" points="105.81,215.75 105.81,136.4 103.37,136.4 103.37,214.34 		"/>
		
			<linearGradient id="SVGID_00000060002064203385211370000009824222505374876574_" gradientUnits="userSpaceOnUse" x1="424.2926" y1="686.4252" x2="491.4141" y2="628.2963" gradientTransform="matrix(0.866 0.5 -1 0.5774 396.5952 -479.7253)">
			<stop  offset="0" style="stop-color:#267FE5"/>
			<stop  offset="0.1699" style="stop-color:#2C87E7"/>
			<stop  offset="0.441" style="stop-color:#3D9FEB"/>
			<stop  offset="0.7773" style="stop-color:#59C4F2"/>
			<stop  offset="1" style="stop-color:#6EE1F8"/>
		</linearGradient>
		<path style="fill:url(#SVGID_00000060002064203385211370000009824222505374876574_);" d="M130.57,161.1l-49.63-28.65
			c-3.53-2.04-3.09-5.6,0.99-7.95l47.65-27.51c4.07-2.35,10.24-2.61,13.77-0.57l49.63,28.65c3.53,2.04,3.09,5.6-0.99,7.95
			l-47.65,27.51C140.26,162.89,134.1,163.14,130.57,161.1z"/>
		<path class="st4" d="M131.12,161.1l-49.63-28.65c-3.53-2.04-3.09-5.6,0.99-7.95l47.65-27.51c2.02-1.17,4.55-1.81,7.02-1.92
			c-2.64,0.03-5.4,0.67-7.57,1.92L81.93,124.5c-4.07,2.35-4.52,5.91-0.99,7.95l49.63,28.65c1.78,1.03,4.23,1.47,6.75,1.35
			C135,162.49,132.77,162.06,131.12,161.1z"/>
		<path class="st4" d="M192.98,125.07l-49.63-28.65c-1.78-1.03-4.24-1.47-6.76-1.35c2.29-0.02,4.49,0.41,6.12,1.35l49.63,28.65
			c3.53,2.04,3.09,5.6-0.99,7.95l-47.65,27.51c-2.02,1.16-4.54,1.81-7.01,1.92c2.66-0.02,5.45-0.66,7.64-1.92l47.65-27.51
			C196.06,130.67,196.51,127.11,192.98,125.07z"/>
		<path class="st4" d="M136.65,154.03c-1.7,0-3.32-0.34-4.54-1.04l-36.95-21.33c-1.2-0.69-1.86-1.66-1.86-2.72
			c0-1.27,0.95-2.54,2.59-3.5l35.48-20.48c3.08-1.78,7.75-1.97,10.42-0.42l36.95,21.33c1.2,0.69,1.86,1.66,1.86,2.72
			c0,1.27-0.95,2.54-2.59,3.5l-35.48,20.48C140.86,153.53,138.7,154.03,136.65,154.03z M137.27,103.83c-1.98,0-4.08,0.48-5.71,1.43
			l-35.48,20.48c-1.54,0.89-2.42,2.06-2.42,3.2c0,0.93,0.6,1.79,1.69,2.42l36.95,21.33c2.58,1.49,7.1,1.3,10.08-0.42l35.48-20.48
			c1.54-0.89,2.42-2.06,2.42-3.2c0-0.93-0.6-1.79-1.69-2.42l-36.95-21.33C140.47,104.16,138.9,103.83,137.27,103.83z"/>
		<g>
			<g>
				<path class="st4" d="M145.75,166l41.98-24.28c0.38-0.22,0.7-0.82,0.7-1.33v-0.69c0-0.51-0.31-0.75-0.7-0.53l-41.98,24.28
					c-0.38,0.22-0.7,0.82-0.7,1.33v0.69C145.06,165.98,145.37,166.22,145.75,166z"/>
				<path class="st9" d="M186.82,141.19c0.38-0.22,0.7-0.82,0.7-1.33v-0.56l0.22-0.13c0.38-0.22,0.7,0.01,0.7,0.53v0.69
					c0,0.51-0.31,1.11-0.7,1.33L145.75,166c-0.38,0.22-0.7-0.01-0.7-0.53v-0.13L186.82,141.19z"/>
			</g>
			<g>
				<path class="st4" d="M145.75,173.38l41.98-24.28c0.38-0.22,0.7-0.82,0.7-1.33v-0.69c0-0.51-0.31-0.75-0.7-0.53l-41.98,24.28
					c-0.38,0.22-0.7,0.82-0.7,1.33v0.69C145.06,173.37,145.37,173.61,145.75,173.38z"/>
				<path class="st9" d="M186.82,148.58c0.38-0.22,0.7-0.82,0.7-1.33v-0.56l0.22-0.13c0.38-0.22,0.7,0.01,0.7,0.53v0.69
					c0,0.51-0.31,1.11-0.7,1.33l-41.98,24.28c-0.38,0.22-0.7-0.01-0.7-0.53v-0.13L186.82,148.58z"/>
			</g>
			<g>
				<path class="st4" d="M145.75,180.77l41.98-24.28c0.38-0.22,0.7-0.82,0.7-1.33v-0.69c0-0.51-0.31-0.75-0.7-0.53l-41.98,24.28
					c-0.38,0.22-0.7,0.82-0.7,1.33v0.69C145.06,180.76,145.37,180.99,145.75,180.77z"/>
				<path class="st9" d="M186.82,155.97c0.38-0.22,0.7-0.82,0.7-1.33v-0.56l0.22-0.13c0.38-0.22,0.7,0.01,0.7,0.53v0.69
					c0,0.51-0.31,1.11-0.7,1.33l-41.98,24.28c-0.38,0.22-0.7-0.01-0.7-0.53v-0.13L186.82,155.97z"/>
			</g>
			<g>
				<path class="st4" d="M145.75,188.16l41.98-24.28c0.38-0.22,0.7-0.82,0.7-1.33v-0.69c0-0.51-0.31-0.75-0.7-0.53l-41.98,24.28
					c-0.38,0.22-0.7,0.82-0.7,1.33v0.69C145.06,188.15,145.37,188.38,145.75,188.16z"/>
				<path class="st9" d="M186.82,163.35c0.38-0.22,0.7-0.82,0.7-1.33v-0.56l0.22-0.13c0.38-0.22,0.7,0.01,0.7,0.53v0.69
					c0,0.51-0.31,1.11-0.7,1.33l-41.98,24.28c-0.38,0.22-0.7-0.01-0.7-0.53v-0.13L186.82,163.35z"/>
			</g>
			<g>
				<path class="st4" d="M145.75,195.55l41.98-24.28c0.38-0.22,0.7-0.82,0.7-1.33v-0.69c0-0.51-0.31-0.75-0.7-0.53l-41.98,24.28
					c-0.38,0.22-0.7,0.82-0.7,1.33v0.69C145.06,195.54,145.37,195.77,145.75,195.55z"/>
				<path class="st9" d="M186.82,170.74c0.38-0.22,0.7-0.82,0.7-1.33v-0.56l0.22-0.13c0.38-0.22,0.7,0.01,0.7,0.53v0.69
					c0,0.51-0.31,1.11-0.7,1.33l-41.98,24.28c-0.38,0.22-0.7-0.01-0.7-0.53v-0.13L186.82,170.74z"/>
			</g>
			<g>
				<path class="st4" d="M145.75,202.94l41.98-24.28c0.38-0.22,0.7-0.82,0.7-1.33v-0.69c0-0.51-0.31-0.75-0.7-0.53l-41.98,24.28
					c-0.38,0.22-0.7,0.82-0.7,1.33v0.69C145.06,202.92,145.37,203.16,145.75,202.94z"/>
				<path class="st9" d="M186.82,178.13c0.38-0.22,0.7-0.82,0.7-1.33v-0.56l0.22-0.13c0.38-0.22,0.7,0.01,0.7,0.53v0.69
					c0,0.51-0.31,1.11-0.7,1.33l-41.98,24.28c-0.38,0.22-0.7-0.01-0.7-0.53v-0.13L186.82,178.13z"/>
			</g>
			<g>
				<path class="st4" d="M145.75,210.33l41.98-24.28c0.38-0.22,0.7-0.82,0.7-1.33v-0.69c0-0.51-0.31-0.75-0.7-0.53l-41.98,24.28
					c-0.38,0.22-0.7,0.82-0.7,1.33v0.69C145.06,210.31,145.37,210.55,145.75,210.33z"/>
				<path class="st9" d="M186.82,185.52c0.38-0.22,0.7-0.82,0.7-1.33v-0.56l0.22-0.13c0.38-0.22,0.7,0.01,0.7,0.53v0.69
					c0,0.51-0.31,1.11-0.7,1.33l-41.98,24.28c-0.38,0.22-0.7-0.01-0.7-0.53v-0.13L186.82,185.52z"/>
			</g>
			<g>
				<path class="st4" d="M145.75,217.72l41.98-24.28c0.38-0.22,0.7-0.82,0.7-1.33v-0.69c0-0.51-0.31-0.75-0.7-0.53l-41.98,24.28
					c-0.38,0.22-0.7,0.82-0.7,1.33v0.69C145.06,217.7,145.37,217.94,145.75,217.72z"/>
				<path class="st9" d="M186.82,192.91c0.38-0.22,0.7-0.82,0.7-1.33v-0.56l0.22-0.13c0.38-0.22,0.7,0.01,0.7,0.53v0.69
					c0,0.51-0.31,1.11-0.7,1.33l-41.98,24.28c-0.38,0.22-0.7-0.01-0.7-0.53v-0.13L186.82,192.91z"/>
			</g>
			<g>
				<path class="st4" d="M145.75,225.1l41.98-24.28c0.38-0.22,0.7-0.82,0.7-1.33v-0.69c0-0.51-0.31-0.75-0.7-0.53l-41.98,24.28
					c-0.38,0.22-0.7,0.82-0.7,1.33v0.69C145.06,225.09,145.37,225.33,145.75,225.1z"/>
				<path class="st9" d="M186.82,200.3c0.38-0.22,0.7-0.82,0.7-1.33v-0.56l0.22-0.13c0.38-0.22,0.7,0.01,0.7,0.53v0.69
					c0,0.51-0.31,1.11-0.7,1.33l-41.98,24.28c-0.38,0.22-0.7-0.01-0.7-0.53v-0.13L186.82,200.3z"/>
			</g>
		</g>
		<g>
			<g>
				<circle class="st4" cx="136.96" cy="167.2" r="1.13"/>
				<path class="st9" d="M136.96,167.9c-0.55,0-1.01-0.39-1.11-0.92c-0.01,0.07-0.02,0.14-0.02,0.21c0,0.62,0.5,1.13,1.13,1.13
					c0.62,0,1.13-0.5,1.13-1.13c0-0.07-0.01-0.14-0.02-0.21C137.97,167.51,137.51,167.9,136.96,167.9z"/>
			</g>
			<g>
				<circle class="st4" cx="136.96" cy="174.59" r="1.13"/>
				<path class="st9" d="M136.96,175.29c-0.55,0-1.01-0.39-1.11-0.92c-0.01,0.07-0.02,0.14-0.02,0.21c0,0.62,0.5,1.13,1.13,1.13
					c0.62,0,1.13-0.5,1.13-1.13c0-0.07-0.01-0.14-0.02-0.21C137.97,174.9,137.51,175.29,136.96,175.29z"/>
			</g>
			<g>
				<circle class="st4" cx="136.96" cy="181.97" r="1.13"/>
				<path class="st9" d="M136.96,182.68c-0.55,0-1.01-0.39-1.11-0.92c-0.01,0.07-0.02,0.14-0.02,0.21c0,0.62,0.5,1.13,1.13,1.13
					c0.62,0,1.13-0.5,1.13-1.13c0-0.07-0.01-0.14-0.02-0.21C137.97,182.28,137.51,182.68,136.96,182.68z"/>
			</g>
			<g>
				<circle class="st4" cx="136.96" cy="189.36" r="1.13"/>
				<path class="st9" d="M136.96,190.07c-0.55,0-1.01-0.39-1.11-0.92c-0.01,0.07-0.02,0.14-0.02,0.21c0,0.62,0.5,1.13,1.13,1.13
					c0.62,0,1.13-0.5,1.13-1.13c0-0.07-0.01-0.14-0.02-0.21C137.97,189.67,137.51,190.07,136.96,190.07z"/>
			</g>
			<g>
				<circle class="st4" cx="136.96" cy="196.75" r="1.13"/>
				<path class="st9" d="M136.96,197.46c-0.55,0-1.01-0.39-1.11-0.92c-0.01,0.07-0.02,0.14-0.02,0.21c0,0.62,0.5,1.13,1.13,1.13
					c0.62,0,1.13-0.5,1.13-1.13c0-0.07-0.01-0.14-0.02-0.21C137.97,197.06,137.51,197.46,136.96,197.46z"/>
			</g>
			<g>
				<circle class="st4" cx="136.96" cy="204.14" r="1.13"/>
				<path class="st9" d="M136.96,204.84c-0.55,0-1.01-0.39-1.11-0.92c-0.01,0.07-0.02,0.14-0.02,0.21c0,0.62,0.5,1.13,1.13,1.13
					c0.62,0,1.13-0.5,1.13-1.13c0-0.07-0.01-0.14-0.02-0.21C137.97,204.45,137.51,204.84,136.96,204.84z"/>
			</g>
			<g>
				<circle class="st4" cx="136.96" cy="211.53" r="1.13"/>
				<path class="st9" d="M136.96,212.23c-0.55,0-1.01-0.39-1.11-0.92c-0.01,0.07-0.02,0.14-0.02,0.21c0,0.62,0.5,1.13,1.13,1.13
					c0.62,0,1.13-0.5,1.13-1.13c0-0.07-0.01-0.14-0.02-0.21C137.97,211.84,137.51,212.23,136.96,212.23z"/>
			</g>
			<g>
				<circle class="st4" cx="136.96" cy="218.92" r="1.13"/>
				<path class="st9" d="M136.96,219.62c-0.55,0-1.01-0.39-1.11-0.92c-0.01,0.07-0.02,0.14-0.02,0.21c0,0.62,0.5,1.13,1.13,1.13
					c0.62,0,1.13-0.5,1.13-1.13c0-0.07-0.01-0.14-0.02-0.21C137.97,219.23,137.51,219.62,136.96,219.62z"/>
			</g>
			<g>
				<circle class="st4" cx="136.96" cy="226.31" r="1.13"/>
				<path class="st9" d="M136.96,227.01c-0.55,0-1.01-0.39-1.11-0.92c-0.01,0.07-0.02,0.14-0.02,0.21c0,0.62,0.5,1.13,1.13,1.13
					c0.62,0,1.13-0.5,1.13-1.13c0-0.07-0.01-0.14-0.02-0.21C137.97,226.62,137.51,227.01,136.96,227.01z"/>
			</g>
		</g>
	</g>
	<g>
		<g>
			<path class="st10" d="M120.85,215.5c-0.23,0-0.47-0.07-0.71-0.21l-1.68-0.97c-0.91-0.53-1.66-1.94-1.66-3.15v-45.35
				c0-0.67,0.23-1.19,0.63-1.42c0.34-0.2,0.77-0.17,1.2,0.08l1.68,0.97c0.91,0.53,1.66,1.94,1.66,3.15v45.35
				c0,0.67-0.23,1.19-0.63,1.42C121.19,215.46,121.02,215.5,120.85,215.5z M117.92,164.61c-0.12,0-0.22,0.03-0.32,0.08
				c-0.29,0.17-0.46,0.58-0.46,1.12v45.35c0,1.1,0.67,2.38,1.49,2.86l1.68,0.97c0.32,0.19,0.63,0.22,0.86,0.08
				c0.29-0.17,0.46-0.58,0.46-1.12V168.6c0-1.1-0.67-2.38-1.49-2.86l-1.68-0.97C118.27,164.67,118.08,164.61,117.92,164.61z"/>
		</g>
	</g>
</g>
</svg>
